<svg width="48" height="48" viewBox="0 0 48 48" fill="none" xmlns="http://www.w3.org/2000/svg">
<rect width="48" height="48" fill="white"></rect>
<path d="M0 3C-6.28545e-07 1.34314 1.34314 -6.28541e-07 3 0L45 1.59331e-05C46.6568 1.65617e-05 48 1.34316 48 3.00002L48 45C48 46.6569 46.6569 48 45 48L3.00002 48C1.34316 48 1.65617e-05 46.6568 1.59331e-05 45L0 3Z" fill="#F5435A"></path>
<path d="M7.5973 30.9593C11.1243 30.9593 13.9865 28.0589 13.9865 24.4797V19.6209C13.9865 18.7241 13.273 18 12.3892 18C11.5054 18 10.7919 18.7241 10.7919 19.6209V24.4797C10.7919 26.2693 9.36081 27.7216 7.5973 27.7216C6.71351 27.7216 6 28.4456 6 29.3384C6 30.2311 6.71351 30.9593 7.5973 30.9593Z" fill="white"></path>
<path d="M34.4027 27.7216C32.6392 27.7216 31.2081 26.2693 31.2081 24.4797V24.3233H32.477C33.3608 24.3233 34.0784 23.5951 34.0784 22.6983C34.0784 21.8014 33.3608 21.0732 32.477 21.0732H31.2081V19.6209C31.2081 18.7282 30.4946 18 29.6108 18C28.727 18 28.0135 18.7241 28.0135 19.6209V24.4797C28.0135 28.0589 30.8757 30.9593 34.4027 30.9593C35.2865 30.9593 36 30.2352 36 29.3384C36 28.4415 35.2865 27.7216 34.4027 27.7216Z" fill="white"></path>
<path d="M27.0973 22.2087C27.0973 22.2046 27.0973 22.2046 27.0973 22.2087C27.1014 22.2046 27.1054 22.2046 27.1054 22.2046C26.6027 20.8634 25.6622 19.6868 24.3487 18.9134C21.3 17.1196 17.4081 18.181 15.6527 21.2831C13.8933 24.381 14.9392 28.3428 17.9838 30.1324C20.2257 31.4489 22.9257 31.2185 24.896 29.7704L24.8838 29.7539C25.3379 29.4701 25.6379 28.9599 25.6379 28.3798C25.6379 27.4871 24.9244 26.763 24.0446 26.763C23.619 26.763 23.2298 26.9317 22.946 27.2114C21.9892 27.8656 20.7163 27.9684 19.6419 27.3678L26.0757 24.3357C26.4487 24.2205 26.7811 23.9654 26.9879 23.5952C27.2392 23.155 27.2636 22.6489 27.0973 22.2087ZM22.7554 21.715C22.946 21.8261 23.1163 21.9536 23.2744 22.0935L17.9798 24.5825C17.9676 24.0107 18.1054 23.4306 18.4054 22.8999C19.2852 21.353 21.2311 20.8223 22.7554 21.715Z" fill="white"></path>
<path d="M40.1452 15.0013C40.8621 14.9637 41.2711 15.7561 40.7947 16.2598L36.5548 20.7435C36.0582 21.2685 35.1329 20.9329 35.1426 20.2312L35.1678 18.4121C35.1712 18.1737 35.0546 17.9478 34.8532 17.8023L33.316 16.6919C32.7231 16.2636 33.0166 15.375 33.7639 15.3358L40.1452 15.0013Z" fill="white"></path>
</svg>