<svg width="80" height="80" viewBox="0 0 80 80" fill="none" xmlns="http://www.w3.org/2000/svg">
<rect width="80" height="80" rx="4" fill="#84FFD6"/>
<path fill-rule="evenodd" clip-rule="evenodd" d="M69.1899 21.6686C70.1274 21.6108 70.6622 22.8299 70.0393 23.6048L64.4947 30.5028C63.8454 31.3105 62.6353 30.7941 62.6481 29.7147L62.681 26.9159C62.6854 26.5492 62.5329 26.2017 62.2695 25.9779L60.2594 24.2695C59.4841 23.6106 59.8679 22.2436 60.8451 22.1833L69.1899 21.6686ZM25.0719 39.7829C25.0719 46.3908 19.6705 51.7454 13.0144 51.7454C11.3465 51.7454 10 50.401 10 48.7529C10 47.1047 11.3465 45.7679 13.0144 45.7679C16.3425 45.7679 19.0432 43.0868 19.0432 39.7829V30.813C19.0432 29.1572 20.3897 27.8205 22.0575 27.8205C23.7254 27.8205 25.0719 29.1572 25.0719 30.813V39.7829ZM57.5722 39.7829C57.5722 43.0868 60.2729 45.7679 63.601 45.7679C65.2689 45.7679 66.6154 47.0971 66.6154 48.7529C66.6154 50.4086 65.2689 51.7454 63.601 51.7454C56.9449 51.7454 51.5434 46.3908 51.5434 39.7829V30.813C51.5434 29.1572 52.89 27.8205 54.5578 27.8205C56.2257 27.8205 57.5722 29.1648 57.5722 30.813V33.4941H59.9669C61.6348 33.4941 62.9889 34.8384 62.9889 36.4942C62.9889 38.15 61.6348 39.4943 59.9669 39.4943H57.5722V39.7829ZM49.8145 35.5904C49.8221 35.5828 49.8298 35.5828 49.8298 35.5828C48.8811 33.1068 47.1061 30.9346 44.6273 29.5067C38.8739 26.1951 31.5292 28.1547 28.2165 33.8815C24.896 39.6007 26.8699 46.9149 32.6156 50.2188C36.8465 52.6493 41.9419 52.2239 45.6601 49.5504L45.6372 49.52C46.494 48.996 47.0602 48.0542 47.0602 46.9832C47.0602 45.3351 45.7137 43.9983 44.0535 43.9983C43.2501 43.9983 42.5157 44.3097 41.9801 44.8262C40.1745 46.0338 37.7722 46.2237 35.7448 45.1148L47.8865 39.5171C48.5903 39.3045 49.2177 38.8336 49.6079 38.15C50.0822 37.3373 50.1281 36.4031 49.8145 35.5904ZM41.6205 34.679C41.9801 34.8841 42.3014 35.1195 42.5998 35.3778L32.608 39.9729C32.585 38.9171 32.8451 37.8462 33.4113 36.8664C35.0715 34.0106 38.7439 33.0308 41.6205 34.679Z" fill="white"/>
</svg>
