<svg width="80" height="80" viewBox="0 0 80 80" fill="none" xmlns="http://www.w3.org/2000/svg">
<rect width="80" height="80" rx="4" fill="#4E75FF"/>
<path fill-rule="evenodd" clip-rule="evenodd" d="M69.1899 21.6687C70.1274 21.6108 70.6622 22.8299 70.0393 23.6049L64.4947 30.5028C63.8454 31.3106 62.6353 30.7942 62.6481 29.7147L62.681 26.916C62.6854 26.5493 62.5329 26.2017 62.2695 25.9779L60.2594 24.2696C59.4841 23.6107 59.8679 22.2436 60.8451 22.1834L69.1899 21.6687ZM25.0719 39.783C25.0719 46.3908 19.6705 51.7454 13.0144 51.7454C11.3465 51.7454 10 50.4011 10 48.7529C10 47.1048 11.3465 45.768 13.0144 45.768C16.3425 45.768 19.0432 43.0869 19.0432 39.783V30.813C19.0432 29.1573 20.3897 27.8205 22.0575 27.8205C23.7254 27.8205 25.0719 29.1573 25.0719 30.813V39.783ZM57.5722 39.783C57.5722 43.0869 60.2729 45.768 63.601 45.768C65.2689 45.768 66.6154 47.0972 66.6154 48.7529C66.6154 50.4087 65.2689 51.7454 63.601 51.7454C56.9449 51.7454 51.5434 46.3908 51.5434 39.783V30.813C51.5434 29.1573 52.89 27.8205 54.5578 27.8205C56.2257 27.8205 57.5722 29.1649 57.5722 30.813V33.4941H59.9669C61.6348 33.4941 62.9889 34.8385 62.9889 36.4942C62.9889 38.15 61.6348 39.4944 59.9669 39.4944H57.5722V39.783ZM49.8145 35.5905C49.8221 35.5829 49.8298 35.5829 49.8298 35.5829C48.8811 33.1068 47.1061 30.9346 44.6273 29.5067C38.8739 26.1952 31.5292 28.1548 28.2165 33.8815C24.896 39.6007 26.8699 46.9149 32.6156 50.2188C36.8465 52.6493 41.9419 52.224 45.6601 49.5505L45.6372 49.5201C46.494 48.996 47.0602 48.0542 47.0602 46.9833C47.0602 45.3351 45.7137 43.9984 44.0535 43.9984C43.2501 43.9984 42.5157 44.3098 41.9801 44.8262C40.1745 46.0339 37.7722 46.2238 35.7448 45.1149L47.8865 39.5172C48.5903 39.3045 49.2177 38.8336 49.6079 38.15C50.0822 37.3374 50.1281 36.4032 49.8145 35.5905ZM41.6205 34.679C41.9801 34.8841 42.3014 35.1196 42.5998 35.3778L32.608 39.9729C32.585 38.9172 32.8451 37.8462 33.4113 36.8665C35.0715 34.0107 38.7439 33.0309 41.6205 34.679Z" fill="white"/>
</svg>
